<svg xmlns="http://www.w3.org/2000/svg" xmlns:xlink="http://www.w3.org/1999/xlink" width="1920" zoomAndPan="magnify" viewBox="0 0 1440 809.999993" height="1080" preserveAspectRatio="xMidYMid meet" version="1.0"><defs><g/><clipPath id="c1f9c80311"><path d="M 38 130 L 1343.199219 130 L 1343.199219 556.359375 L 38 556.359375 Z M 38 130 " clip-rule="nonzero"/></clipPath><clipPath id="e2a26e9bdd"><rect x="0" width="1306" y="0" height="427"/></clipPath><clipPath id="0c3275a288"><path d="M 45 53 L 281 53 L 281 238 L 45 238 Z M 45 53 " clip-rule="nonzero"/></clipPath><clipPath id="900a947d7d"><path d="M 81.800781 -1.996094 L 311.019531 101.679688 L 228.648438 283.796875 L -0.570312 180.125 Z M 81.800781 -1.996094 " clip-rule="nonzero"/></clipPath><clipPath id="8ce939c74d"><path d="M 81.800781 -1.996094 L 311.019531 101.679688 L 228.648438 283.796875 L -0.570312 180.125 Z M 81.800781 -1.996094 " clip-rule="nonzero"/></clipPath><clipPath id="328366007b"><rect x="0" width="1344" y="0" height="557"/></clipPath></defs><g transform="matrix(1, 0, 0, 1, 32, 83)"><g clip-path="url(#328366007b)"><g clip-path="url(#c1f9c80311)"><g transform="matrix(1, 0, 0, 1, 38, 130)"><g clip-path="url(#e2a26e9bdd)"><g fill="#ffffff" fill-opacity="1"><g transform="translate(0.998306, 295.846597)"><g><path d="M 140.8125 0 L 14.71875 0 L 14.71875 -234.015625 L 139.375 -234.015625 C 158.03125 -234.015625 172.9375 -231.703125 184.09375 -227.078125 C 195.25 -222.460938 203.328125 -215.875 208.328125 -207.3125 C 213.328125 -198.757812 215.828125 -188.613281 215.828125 -176.875 L 215.828125 -176.296875 C 215.828125 -163.609375 212.648438 -152.835938 206.296875 -143.984375 C 199.953125 -135.140625 191.203125 -128.789062 180.046875 -124.9375 C 194.671875 -121.664062 206.019531 -115.078125 214.09375 -105.171875 C 222.175781 -95.265625 226.21875 -83.195312 226.21875 -68.96875 L 226.21875 -68.390625 C 226.21875 -52.222656 222.753906 -39.085938 215.828125 -28.984375 C 208.910156 -18.890625 199.101562 -11.535156 186.40625 -6.921875 C 173.707031 -2.304688 158.507812 0 140.8125 0 Z M 68.390625 -183.796875 L 68.390625 -138.796875 L 132.734375 -138.796875 C 152.347656 -138.796875 162.15625 -146.203125 162.15625 -161.015625 L 162.15625 -161.59375 C 162.15625 -176.394531 152.539062 -183.796875 133.3125 -183.796875 Z M 68.390625 -100.125 L 68.390625 -50.203125 L 140.234375 -50.203125 C 150.617188 -50.203125 158.40625 -52.460938 163.59375 -56.984375 C 168.789062 -61.503906 171.390625 -67.804688 171.390625 -75.890625 L 171.390625 -76.75 C 171.390625 -92.332031 160.71875 -100.125 139.375 -100.125 Z M 68.390625 -100.125 "/></g></g></g><g fill="#ffffff" fill-opacity="1"><g transform="translate(224.598197, 295.846597)"><g><path d="M 208.046875 -77.328125 L 208.046875 -74.15625 L 67.515625 -74.15625 C 70.210938 -64.726562 75.742188 -57.082031 84.109375 -51.21875 C 92.472656 -45.351562 103.488281 -42.421875 117.15625 -42.421875 C 128.695312 -42.421875 139.613281 -44.003906 149.90625 -47.171875 C 160.195312 -50.347656 169.1875 -54.050781 176.875 -58.28125 L 200.546875 -16.453125 C 191.503906 -11.253906 179.625 -6.441406 164.90625 -2.015625 C 150.1875 2.398438 133.691406 4.609375 115.421875 4.609375 C 94.640625 4.609375 76.457031 0.957031 60.875 -6.34375 C 45.300781 -13.65625 33.132812 -24.039062 24.375 -37.5 C 15.625 -50.96875 11.25 -66.84375 11.25 -85.125 L 11.25 -85.703125 C 11.25 -103.203125 15.285156 -118.632812 23.359375 -132 C 31.441406 -145.375 42.9375 -155.90625 57.84375 -163.59375 C 72.757812 -171.289062 90.21875 -175.140625 110.21875 -175.140625 C 129.457031 -175.140625 146.4375 -171.484375 161.15625 -164.171875 C 175.875 -156.867188 187.367188 -146.003906 195.640625 -131.578125 C 203.910156 -117.148438 208.046875 -99.066406 208.046875 -77.328125 Z M 109.9375 -132.4375 C 99.738281 -132.4375 90.9375 -129.9375 83.53125 -124.9375 C 76.125 -119.9375 70.976562 -112.914062 68.09375 -103.875 L 153.21875 -103.875 C 150.90625 -112.34375 145.945312 -119.21875 138.34375 -124.5 C 130.75 -129.789062 121.28125 -132.4375 109.9375 -132.4375 Z M 109.9375 -132.4375 "/></g></g></g><g fill="#ffffff" fill-opacity="1"><g transform="translate(431.752577, 295.846597)"><g><path d="M 208.046875 -77.328125 L 208.046875 -74.15625 L 67.515625 -74.15625 C 70.210938 -64.726562 75.742188 -57.082031 84.109375 -51.21875 C 92.472656 -45.351562 103.488281 -42.421875 117.15625 -42.421875 C 128.695312 -42.421875 139.613281 -44.003906 149.90625 -47.171875 C 160.195312 -50.347656 169.1875 -54.050781 176.875 -58.28125 L 200.546875 -16.453125 C 191.503906 -11.253906 179.625 -6.441406 164.90625 -2.015625 C 150.1875 2.398438 133.691406 4.609375 115.421875 4.609375 C 94.640625 4.609375 76.457031 0.957031 60.875 -6.34375 C 45.300781 -13.65625 33.132812 -24.039062 24.375 -37.5 C 15.625 -50.96875 11.25 -66.84375 11.25 -85.125 L 11.25 -85.703125 C 11.25 -103.203125 15.285156 -118.632812 23.359375 -132 C 31.441406 -145.375 42.9375 -155.90625 57.84375 -163.59375 C 72.757812 -171.289062 90.21875 -175.140625 110.21875 -175.140625 C 129.457031 -175.140625 146.4375 -171.484375 161.15625 -164.171875 C 175.875 -156.867188 187.367188 -146.003906 195.640625 -131.578125 C 203.910156 -117.148438 208.046875 -99.066406 208.046875 -77.328125 Z M 109.9375 -132.4375 C 99.738281 -132.4375 90.9375 -129.9375 83.53125 -124.9375 C 76.125 -119.9375 70.976562 -112.914062 68.09375 -103.875 L 153.21875 -103.875 C 150.90625 -112.34375 145.945312 -119.21875 138.34375 -124.5 C 130.75 -129.789062 121.28125 -132.4375 109.9375 -132.4375 Z M 109.9375 -132.4375 "/></g></g></g><g fill="#ffffff" fill-opacity="1"><g transform="translate(638.906957, 295.846597)"><g><path d="M 68.96875 0 L 14.71875 0 L 14.71875 -165.34375 C 24.53125 -167.257812 34.722656 -168.988281 45.296875 -170.53125 C 55.878906 -172.070312 66.171875 -173.320312 76.171875 -174.28125 C 86.179688 -175.238281 95.128906 -175.71875 103.015625 -175.71875 C 116.671875 -175.71875 129.078125 -173.988281 140.234375 -170.53125 C 151.390625 -167.070312 160.238281 -160.4375 166.78125 -150.625 C 173.707031 -159.664062 182.941406 -166.109375 194.484375 -169.953125 C 206.023438 -173.796875 219.101562 -175.71875 233.71875 -175.71875 C 261.613281 -175.71875 282.4375 -170.285156 296.1875 -159.421875 C 309.945312 -148.554688 316.828125 -130.039062 316.828125 -103.875 L 316.828125 0 L 262.578125 0 L 262.578125 -97.234375 C 262.578125 -107.242188 259.976562 -114.75 254.78125 -119.75 C 249.59375 -124.75 240.648438 -127.25 227.953125 -127.25 C 215.066406 -127.25 206.023438 -124.75 200.828125 -119.75 C 195.628906 -114.75 193.03125 -107.242188 193.03125 -97.234375 L 193.03125 0 L 138.796875 0 L 138.796875 -97.234375 C 138.796875 -108.585938 135.71875 -116.425781 129.5625 -120.75 C 123.40625 -125.082031 114.941406 -127.25 104.171875 -127.25 C 98.203125 -127.25 92.09375 -126.910156 85.84375 -126.234375 C 79.59375 -125.566406 73.96875 -124.75 68.96875 -123.78125 Z M 68.96875 0 "/></g></g></g><g fill="#ffffff" fill-opacity="1"><g transform="translate(958.294693, 295.846597)"><g><path d="M 108.203125 4.046875 C 88.578125 4.046875 71.789062 1.882812 57.84375 -2.4375 C 43.90625 -6.769531 33.234375 -14.082031 25.828125 -24.375 C 18.421875 -34.664062 14.71875 -48.757812 14.71875 -66.65625 L 14.71875 -168.21875 L 68.96875 -168.21875 L 68.96875 -72.140625 C 68.96875 -60.785156 72.234375 -52.941406 78.765625 -48.609375 C 85.304688 -44.285156 94.734375 -42.125 107.046875 -42.125 C 113.203125 -42.125 119.691406 -42.507812 126.515625 -43.28125 C 133.347656 -44.050781 139.363281 -44.820312 144.5625 -45.59375 L 144.5625 -168.21875 L 198.8125 -168.21875 L 198.8125 -6.34375 C 189.1875 -4.613281 178.890625 -2.929688 167.921875 -1.296875 C 156.960938 0.335938 146.335938 1.632812 136.046875 2.59375 C 125.753906 3.5625 116.472656 4.046875 108.203125 4.046875 Z M 108.203125 4.046875 "/></g></g></g><g fill="#ffffff" fill-opacity="1"><g transform="translate(1159.967237, 295.846597)"><g><path d="M 68.96875 0 L 14.71875 0 L 14.71875 -162.15625 C 22.601562 -163.3125 31.066406 -164.320312 40.109375 -165.1875 C 49.148438 -166.050781 58 -166.722656 66.65625 -167.203125 C 75.3125 -167.691406 83.289062 -168.03125 90.59375 -168.21875 C 97.90625 -168.414062 103.773438 -168.515625 108.203125 -168.515625 L 142.546875 -168.515625 L 142.546875 -118.296875 L 100.984375 -118.296875 C 98.484375 -118.296875 95.066406 -118.25 90.734375 -118.15625 C 86.410156 -118.0625 82.179688 -117.867188 78.046875 -117.578125 C 73.910156 -117.296875 70.882812 -116.960938 68.96875 -116.578125 Z M 68.96875 0 "/></g></g></g></g></g></g><g clip-path="url(#0c3275a288)"><g clip-path="url(#900a947d7d)"><g clip-path="url(#8ce939c74d)"><path fill="#fc8108" d="M 215.46875 138.488281 L 267.363281 90.007812 C 273.152344 84.609375 282.421875 89.84375 280.777344 97.609375 L 252.347656 230.363281 C 251.589844 233.863281 248.644531 236.484375 245.074219 236.734375 C 222.0625 238.347656 136.699219 241.289062 50.316406 204.742188 C 47.132812 203.410156 45.167969 200.109375 45.394531 196.699219 L 56.398438 60.726562 C 56.964844 52.914062 67.164062 50.390625 71.292969 57.035156 L 110.984375 121.089844 C 113.875 125.746094 120.472656 126.207031 124.003906 122.039062 L 168.308594 69.464844 C 172.417969 64.625 180.222656 66.179688 182.160156 72.214844 L 202.152344 135.046875 C 204.09375 140.699219 211.171875 142.53125 215.46875 138.488281 Z M 215.46875 138.488281 " fill-opacity="1" fill-rule="nonzero"/></g></g></g></g></g></svg>